<svg id="Слой_1" data-name="Слой 1" xmlns="http://www.w3.org/2000/svg" viewBox="0 0 126.89 14.66"><defs><style>.cls-1{fill:#1d1d1b;}</style></defs><title>MU-logo</title><path class="cls-1" d="M9.57,2.32h1.49V13.68H9.51V5.17l.08.5L6.79,12.1H5.68L2.88,5.83,3,5.17v8.51H1.41V2.32H2.9l3.33,7.5Z" transform="translate(-1.41 -2.32)"/><path class="cls-1" d="M14.07,13.18a2.36,2.36,0,0,1-.74-1.89A2.29,2.29,0,0,1,14,9.48a3,3,0,0,1,2-.6h2.31l.11,1.28H16.07a1.36,1.36,0,0,0-.93.28,1.08,1.08,0,0,0-.31.85,1,1,0,0,0,.41.91,2.1,2.1,0,0,0,1.24.3,3.44,3.44,0,0,0,1.37-.2.64.64,0,0,0,.45-.6l.16,1.14a2.05,2.05,0,0,1-.52.54,2.19,2.19,0,0,1-.71.31,3.68,3.68,0,0,1-.92.11A3.44,3.44,0,0,1,14.07,13.18ZM18.3,8.54a1.74,1.74,0,0,0-.43-1.24,1.62,1.62,0,0,0-1.21-.44,3.09,3.09,0,0,0-.95.15,3,3,0,0,0-.82.41l-1.16-.79a3,3,0,0,1,1.21-.87,4.49,4.49,0,0,1,1.68-.31,3.8,3.8,0,0,1,1.72.36,2.5,2.5,0,0,1,1.1,1,3.3,3.3,0,0,1,.37,1.63v5.21H18.3Z" transform="translate(-1.41 -2.32)"/><path class="cls-1" d="M22.23,2.32h1.6V13.68h-1.6Zm.69,8.28,4.17-5H29l-6.15,6.92ZM24.8,9l1-1.06,3.54,5.74H27.63Z" transform="translate(-1.41 -2.32)"/><path class="cls-1" d="M32.21,13.66A5.11,5.11,0,0,1,31,13.23a4.35,4.35,0,0,1-1-.7L31,11.37a5.44,5.44,0,0,0,1.3.75,3.68,3.68,0,0,0,1.28.25,2.68,2.68,0,0,0,1.42-.3.94.94,0,0,0,.47-.87.7.7,0,0,0-.25-.59,1.46,1.46,0,0,0-.65-.26,8.75,8.75,0,0,0-1.07-.12h-.39A6.28,6.28,0,0,1,31.75,10a1.8,1.8,0,0,1-.91-.63A2.08,2.08,0,0,1,30.48,8a2.64,2.64,0,0,1,.35-1.43,2.09,2.09,0,0,1,1.05-.85,4.58,4.58,0,0,1,1.74-.29,5.81,5.81,0,0,1,1.2.12,5,5,0,0,1,1.1.35,5.38,5.38,0,0,1,1,.58L36,7.66a5.48,5.48,0,0,0-1.2-.58,3.66,3.66,0,0,0-1.15-.2,2.22,2.22,0,0,0-1.22.28A1,1,0,0,0,32,8a.56.56,0,0,0,.23.49,1.3,1.3,0,0,0,.58.22c.24,0,.57.07,1,.1h.3a6.78,6.78,0,0,1,1.45.23,1.9,1.9,0,0,1,1,.68A2.24,2.24,0,0,1,37,11.2a2.57,2.57,0,0,1-.37,1.44,2.23,2.23,0,0,1-1.13.87,5.46,5.46,0,0,1-1.9.29A6.43,6.43,0,0,1,32.21,13.66Z" transform="translate(-1.41 -2.32)"/><path class="cls-1" d="M39,2.32h1.6V3.91H39Zm0,3.25h1.6v8.11H39Z" transform="translate(-1.41 -2.32)"/><path class="cls-1" d="M43,5.57H44.6v8.11H43Zm4.84,3.2a1.91,1.91,0,0,0-.42-1.33A1.54,1.54,0,0,0,46.23,7a1.66,1.66,0,0,0-1.2.41,1.55,1.55,0,0,0-.43,1.17L44.44,7a2.93,2.93,0,0,1,1-1.13,2.42,2.42,0,0,1,1.34-.4,2.6,2.6,0,0,1,1.45.39A2.42,2.42,0,0,1,49.13,7a4.55,4.55,0,0,1,.32,1.79v4.92h-1.6Zm4.85,0a1.83,1.83,0,0,0-.45-1.33A1.65,1.65,0,0,0,51,7a1.46,1.46,0,0,0-1.15.45,1.85,1.85,0,0,0-.4,1.28l-.32-1.56a3.09,3.09,0,0,1,1-1.25,2.38,2.38,0,0,1,1.38-.44,2.75,2.75,0,0,1,1.5.39A2.4,2.4,0,0,1,54,7a4.37,4.37,0,0,1,.33,1.79v4.92H52.7Z" transform="translate(-1.41 -2.32)"/><path class="cls-1" d="M62.84,13.3a3.22,3.22,0,0,1-1.36-1.44A5.06,5.06,0,0,1,61,9.57V2.32H62.6V9.63a2.74,2.74,0,0,0,.63,1.92,2.27,2.27,0,0,0,1.76.68,2.31,2.31,0,0,0,1.78-.68,2.74,2.74,0,0,0,.63-1.92V2.32H69V9.57a5.06,5.06,0,0,1-.47,2.29,3.27,3.27,0,0,1-1.36,1.44,4.43,4.43,0,0,1-2.17.5A4.38,4.38,0,0,1,62.84,13.3Z" transform="translate(-1.41 -2.32)"/><path class="cls-1" d="M72.93,13.66a4.94,4.94,0,0,1-1.17-.43,4.35,4.35,0,0,1-1-.7l1-1.16a5.44,5.44,0,0,0,1.3.75,3.68,3.68,0,0,0,1.28.25,2.7,2.7,0,0,0,1.42-.3,1,1,0,0,0,.47-.87.68.68,0,0,0-.26-.59,1.37,1.37,0,0,0-.64-.26,8.75,8.75,0,0,0-1.07-.12h-.4A6.29,6.29,0,0,1,72.47,10a1.76,1.76,0,0,1-.91-.63A2.08,2.08,0,0,1,71.2,8a2.64,2.64,0,0,1,.35-1.43,2.11,2.11,0,0,1,1-.85,4.67,4.67,0,0,1,1.75-.29,5.81,5.81,0,0,1,1.2.12,5,5,0,0,1,1.1.35,5.38,5.38,0,0,1,1,.58l-1,1.16a5.48,5.48,0,0,0-1.2-.58,3.71,3.71,0,0,0-1.15-.2,2.2,2.2,0,0,0-1.22.28,1,1,0,0,0-.41.83.56.56,0,0,0,.23.49,1.26,1.26,0,0,0,.58.22c.24,0,.57.07,1,.1h.3a6.78,6.78,0,0,1,1.45.23,1.9,1.9,0,0,1,1,.68,2.3,2.3,0,0,1,.41,1.47,2.57,2.57,0,0,1-.38,1.44,2.21,2.21,0,0,1-1.12.87,5.46,5.46,0,0,1-1.9.29A6.43,6.43,0,0,1,72.93,13.66Z" transform="translate(-1.41 -2.32)"/><path class="cls-1" d="M79.71,5.57H81.3V17H79.71ZM82,13.43a2.08,2.08,0,0,1-.82-1l.1-1.7a2,2,0,0,0,.19.89,1.29,1.29,0,0,0,.55.56,1.74,1.74,0,0,0,.86.2,1.57,1.57,0,0,0,1.22-.48,2,2,0,0,0,.43-1.36V8.77a2,2,0,0,0-.43-1.39,1.54,1.54,0,0,0-1.22-.49,1.74,1.74,0,0,0-.86.19,1.27,1.27,0,0,0-.55.55,1.93,1.93,0,0,0-.19.87l-.16-1.56a2.88,2.88,0,0,1,1-1.1,2.37,2.37,0,0,1,1.32-.39,2.66,2.66,0,0,1,1.47.39A2.46,2.46,0,0,1,85.83,7a4.55,4.55,0,0,1,.32,1.79v1.76a4.3,4.3,0,0,1-.33,1.77,2.46,2.46,0,0,1-1,1.12,2.84,2.84,0,0,1-1.52.39A2.34,2.34,0,0,1,82,13.43Z" transform="translate(-1.41 -2.32)"/><path class="cls-1" d="M89.81,13.38a2.9,2.9,0,0,1-1.21-1.24,4.29,4.29,0,0,1-.42-2V9.25a4.71,4.71,0,0,1,.4-2,2.91,2.91,0,0,1,1.17-1.3,3.58,3.58,0,0,1,1.84-.45A2.93,2.93,0,0,1,93.33,6a3.22,3.22,0,0,1,1.1,1.47,6.34,6.34,0,0,1,.37,2.3v.54H89.34V9h4a2.79,2.79,0,0,0-.51-1.54,1.44,1.44,0,0,0-1.19-.55,1.74,1.74,0,0,0-1.4.59,2.57,2.57,0,0,0-.49,1.68v1a2.07,2.07,0,0,0,.53,1.54,2,2,0,0,0,1.5.54,2.54,2.54,0,0,0,1-.19,3,3,0,0,0,.85-.55l1,1.05a4.46,4.46,0,0,1-1.35.89,3.87,3.87,0,0,1-1.51.32A4.06,4.06,0,0,1,89.81,13.38Z" transform="translate(-1.41 -2.32)"/><path class="cls-1" d="M97,5.57h1.6v8.11H97Zm4.92,3.2a1.83,1.83,0,0,0-.44-1.33A1.67,1.67,0,0,0,100.22,7,1.7,1.7,0,0,0,99,7.38a1.58,1.58,0,0,0-.42,1.17L98.42,7a3,3,0,0,1,1-1.13,2.45,2.45,0,0,1,1.34-.4,2.53,2.53,0,0,1,2.05.87,3.7,3.7,0,0,1,.72,2.44v4.92h-1.6Z" transform="translate(-1.41 -2.32)"/><path class="cls-1" d="M107.45,13.66a5.19,5.19,0,0,1-1.18-.43,4.29,4.29,0,0,1-1-.7l.94-1.16a5.49,5.49,0,0,0,1.31.75,3.68,3.68,0,0,0,1.28.25,2.64,2.64,0,0,0,1.41-.3.94.94,0,0,0,.48-.87.7.7,0,0,0-.26-.59,1.42,1.42,0,0,0-.64-.26,9.21,9.21,0,0,0-1.08-.12h-.39A6.39,6.39,0,0,1,107,10a1.84,1.84,0,0,1-.91-.63A2.08,2.08,0,0,1,105.71,8a2.73,2.73,0,0,1,.35-1.43,2.18,2.18,0,0,1,1-.85,4.58,4.58,0,0,1,1.74-.29,5.91,5.91,0,0,1,1.21.12,5.22,5.22,0,0,1,1.1.35,5.64,5.64,0,0,1,1,.58l-1,1.16a5.08,5.08,0,0,0-1.2-.58,3.62,3.62,0,0,0-1.15-.2,2.22,2.22,0,0,0-1.22.28.94.94,0,0,0-.4.83.53.53,0,0,0,.23.49,1.22,1.22,0,0,0,.58.22c.23,0,.57.07,1,.1h.3a6.88,6.88,0,0,1,1.45.23,1.94,1.94,0,0,1,1,.68,2.3,2.3,0,0,1,.41,1.47,2.57,2.57,0,0,1-.38,1.44,2.23,2.23,0,0,1-1.13.87,5.36,5.36,0,0,1-1.89.29A6.43,6.43,0,0,1,107.45,13.66Z" transform="translate(-1.41 -2.32)"/><path class="cls-1" d="M114.23,2.32h1.59V13.68h-1.59Zm.68,8.28,4.18-5H121l-6.15,6.92ZM116.8,9l1-1.06,3.54,5.74h-1.73Z" transform="translate(-1.41 -2.32)"/><path class="cls-1" d="M122.69,2.32h1.59V3.91h-1.59Zm0,3.25h1.59v8.11h-1.59Z" transform="translate(-1.41 -2.32)"/><path class="cls-1" d="M126.7,2.32h1.6V3.91h-1.6Zm0,3.25h1.6v8.11h-1.6Z" transform="translate(-1.41 -2.32)"/></svg>